<?xml version="1.0" standalone="no"?>
<!DOCTYPE svg PUBLIC "-//W3C//DTD SVG 20010904//EN"
 "http://www.w3.org/TR/2001/REC-SVG-20010904/DTD/svg10.dtd">
<svg version="1.0" xmlns="http://www.w3.org/2000/svg"
 width="1024.000000pt" height="1024.000000pt" viewBox="0 0 1024.000000 1024.000000"
 preserveAspectRatio="xMidYMid meet">

<g transform="translate(0.000000,1024.000000) scale(0.100000,-0.100000)"
fill="#000000" stroke="none">
<path d="M5560 9640 c-147 -14 -334 -77 -468 -158 l-64 -38 -95 33 c-177 62
-409 66 -606 12 -88 -25 -246 -105 -311 -159 -26 -22 -52 -40 -57 -40 -5 0 -9
-4 -9 -8 0 -5 33 0 73 11 51 14 118 21 232 24 233 7 371 -20 552 -109 l82 -41
39 26 c112 73 298 144 443 167 103 17 333 8 419 -15 172 -47 284 -110 394
-221 90 -90 136 -160 173 -262 39 -107 68 -373 44 -410 -6 -10 -10 -4 -15 21
-10 56 -53 156 -99 231 -87 144 -216 254 -372 316 -112 45 -192 60 -323 60
-129 0 -228 -18 -340 -61 -187 -71 -304 -164 -496 -393 -192 -230 -286 -310
-451 -387 -82 -38 -236 -79 -295 -78 -19 0 -14 5 24 20 122 49 219 150 328
340 43 74 104 174 137 224 33 49 59 91 57 93 -3 2 -46 -10 -98 -26 -105 -34
-256 -68 -338 -76 -144 -14 -219 -16 -225 -6 -3 5 -1 10 5 10 7 0 87 38 178
84 213 107 371 158 590 191 168 26 -210 67 -413 46 -453 -49 -811 -243 -1033
-559 -87 -125 -133 -226 -178 -397 l-24 -90 4 170 c4 179 16 255 60 384 59
170 198 367 336 475 l35 27 -65 -6 c-216 -21 -402 -84 -591 -201 -106 -65
-263 -215 -326 -309 -112 -168 -173 -363 -173 -554 0 -39 2 -71 5 -71 4 0 47
29 97 65 154 111 382 244 395 232 2 -3 -27 -47 -65 -99 -38 -51 -88 -122 -112
-157 -165 -246 -424 -377 -677 -343 -144 19 -233 72 -335 200 -40 50 -54 11
-33 -89 40 -195 179 -347 377 -415 l70 -23 66 53 c166 131 349 208 570 237
110 15 352 6 452 -15 99 -21 483 -128 493 -137 12 -9 -141 -36 -293 -50 -69
-7 -118 -14 -110 -17 8 -2 29 -10 46 -18 46 -20 263 -70 385 -88 59 -9 160
-16 225 -16 l119 -1 -55 -29 c-104 -55 -257 -109 -451 -160 -447 -117 -650
-212 -855 -402 l-78 -73 44 82 c24 45 73 117 110 160 144 169 328 266 605 320
52 10 95 20 95 23 0 8 -200 67 -308 90 -191 42 -442 35 -622 -16 -118 -34
-250 -100 -348 -174 -65 -49 -94 -80 -137 -146 -105 -158 -143 -294 -131 -466
8 -117 16 -142 61 -188 19 -19 41 -55 49 -79 22 -60 98 -170 144 -208 l39 -32
64 53 c72 59 120 111 158 171 14 23 30 41 35 41 15 -1 7 -104 -15 -196 -56
-230 -225 -414 -416 -450 -82 -16 -233 -8 -308 16 -70 22 -161 100 -202 173
-29 50 -62 91 -74 91 -29 0 -39 -213 -14 -318 37 -154 161 -324 293 -397 77
-43 191 -77 284 -84 48 -3 90 -10 94 -14 5 -4 8 -72 9 -150 0 -139 -1 -143
-30 -196 -88 -160 -272 -184 -414 -56 -21 19 -42 35 -46 35 -13 0 4 -97 26
-147 69 -162 217 -252 393 -240 45 3 93 9 108 13 27 6 28 5 28 -32 0 -22 7
-67 15 -102 45 -189 194 -344 370 -383 30 -7 55 -15 55 -19 0 -12 -73 -57
-113 -70 -22 -7 -69 -10 -107 -8 -83 4 -148 40 -200 111 -28 38 -36 44 -44 30
-14 -26 2 -114 34 -179 37 -75 110 -146 188 -182 106 -49 261 -42 376 18 22
11 42 17 45 14 3 -3 6 -56 6 -117 0 -100 -3 -118 -26 -167 -33 -71 -70 -114
-125 -146 -50 -29 -137 -42 -183 -26 -18 6 -38 9 -46 6 -28 -11 -15 -44 45
-107 64 -69 163 -126 250 -146 138 -32 284 9 415 115 l58 47 -5 -69 c-6 -83
-32 -146 -84 -203 -49 -55 -103 -82 -176 -89 -70 -6 -66 -15 26 -67 144 -79
282 -98 423 -56 122 36 113 6 116 372 l2 315 92 -100 c99 -109 353 -401 604
-697 187 -219 189 -221 304 -292 150 -92 386 -264 453 -329 91 -90 132 -188
132 -319 0 -56 16 -96 41 -104 24 -8 73 -65 101 -118 23 -41 23 -48 26 -447
l2 -405 -33 -75 -32 -75 -55 -7 c-73 -10 -311 8 -431 32 -121 25 -336 98 -441
151 -275 138 -509 359 -630 594 -51 100 -112 278 -127 376 -7 37 -11 249 -11
512 0 246 -3 447 -6 447 -23 0 -159 -77 -209 -117 -104 -84 -184 -213 -207
-332 -14 -74 -3 -404 17 -541 32 -207 94 -418 180 -612 29 -65 51 -118 50
-118 -9 0 -137 177 -212 293 -179 275 -230 327 -320 327 -36 0 -50 -6 -84 -38
-23 -20 -64 -68 -90 -106 l-49 -69 0 149 c0 231 35 419 105 572 20 41 33 77
31 79 -3 3 -37 -15 -78 -40 -72 -43 -174 -101 -495 -281 -89 -49 -159 -94
-157 -98 9 -15 169 -144 274 -223 713 -530 1542 -851 2455 -951 226 -25 766
-25 990 0 820 90 1565 355 2225 791 175 115 448 321 457 344 2 3 -52 37 -120
75 -67 38 -162 92 -212 121 -49 29 -142 81 -205 115 -63 35 -133 76 -155 90
-53 36 -126 73 -132 67 -2 -3 7 -43 22 -89 14 -45 35 -135 46 -198 19 -114 49
-403 49 -470 l0 -35 -21 35 c-27 46 -107 128 -141 146 -53 28 -118 13 -165
-38 -12 -12 -76 -106 -144 -208 -120 -182 -238 -344 -246 -337 -2 2 13 38 32
81 52 112 110 293 140 436 22 102 28 162 32 330 6 215 -2 319 -36 451 -18 70
-18 71 1 48 38 -49 139 -268 177 -384 21 -66 50 -168 62 -227 13 -60 27 -108
30 -108 19 0 34 106 34 242 0 82 1 148 2 148 11 0 104 -142 130 -199 18 -40
35 -72 37 -70 7 7 -94 410 -120 484 -105 292 -263 463 -572 619 -61 31 -65 45
-6 20 135 -57 340 -28 461 64 l48 37 -45 8 c-89 17 -134 40 -192 97 -46 47
-60 68 -77 124 -12 38 -21 88 -21 112 l0 45 43 -41 c110 -108 270 -157 413
-127 139 30 288 129 338 226 22 41 7 57 -34 36 -146 -76 -319 27 -366 218 -14
56 -15 80 -6 143 5 42 12 77 14 79 2 2 33 -10 68 -28 88 -42 215 -50 317 -19
178 55 314 194 352 361 8 38 7 42 -7 35 -72 -33 -188 0 -247 68 -114 134 -106
288 28 513 78 130 65 121 144 89 91 -38 199 -39 288 -4 107 42 215 173 215
262 0 25 -12 23 -72 -14 -47 -30 -61 -33 -128 -33 -65 0 -82 4 -130 31 -85 48
-150 162 -150 261 0 27 4 34 28 39 163 36 253 79 344 163 90 83 156 189 184
295 29 108 27 273 -2 283 -7 2 -23 -16 -37 -39 -31 -53 -111 -129 -163 -156
-91 -46 -232 -58 -336 -27 -64 18 -158 76 -205 126 -33 35 -103 146 -103 162
0 6 24 -13 54 -41 124 -117 226 -156 394 -150 83 2 116 8 146 24 22 11 41 25
43 31 2 6 -22 15 -54 22 -95 18 -158 58 -215 135 l-28 39 70 18 c143 37 243
115 304 241 39 78 61 195 50 254 l-6 34 -38 -59 c-43 -67 -87 -104 -151 -126
-51 -19 -150 -21 -212 -5 -87 23 -193 120 -232 213 -8 20 -15 38 -15 41 0 2
17 10 38 17 124 40 235 129 277 222 32 68 48 151 39 201 l-6 39 -13 -29 c-45
-105 -223 -150 -349 -88 -93 46 -93 44 -32 166 107 213 147 465 111 698 -64
417 -299 746 -650 911 -94 44 -173 66 -299 82 -86 12 -91 14 -93 37 -13 129
-57 294 -76 287 -7 -2 -39 -56 -72 -120 l-60 -117 -16 82 c-51 261 -240 479
-532 618 -113 54 -227 85 -368 100 -103 11 -119 11 -229 0z m97 -961 c216 -49
397 -215 459 -418 21 -68 17 -82 -9 -31 -37 75 -154 183 -249 229 -89 44 -188
65 -236 52 -85 -25 -165 -88 -233 -184 -76 -108 -106 -184 -154 -381 -55 -228
-74 -282 -132 -378 -26 -43 -48 -77 -49 -75 -1 1 2 103 6 227 7 201 11 235 35
314 33 110 60 165 124 250 28 36 47 66 43 66 -18 0 -89 -52 -139 -101 -30 -30
-110 -137 -177 -239 -68 -102 -147 -213 -175 -247 -110 -131 -292 -251 -441
-290 -90 -24 -274 -23 -355 1 -211 63 -371 218 -441 428 -30 90 -26 113 7 42
13 -26 50 -77 83 -112 184 -197 431 -245 674 -132 155 72 218 146 347 403 105
210 154 285 242 369 208 198 487 273 770 207z m1507 -149 c124 -39 257 -152
323 -276 53 -99 82 -236 75 -355 -2 -23 -10 -18 -94 64 -51 49 -111 98 -133
109 l-40 20 37 -38 c40 -43 125 -206 158 -304 11 -34 27 -105 35 -158 17 -112
20 -292 5 -292 -5 0 -10 5 -10 11 0 27 -120 190 -195 265 -70 71 -204 173
-251 191 -11 4 -6 -9 14 -43 39 -65 67 -154 93 -298 48 -275 118 -436 251
-582 28 -29 72 -68 99 -86 27 -17 47 -33 44 -36 -2 -3 -48 17 -102 44 -86 42
-111 61 -198 148 -149 150 -216 280 -256 498 -58 321 -90 398 -209 512 -84 80
-142 109 -258 129 -81 13 -63 25 49 33 179 12 358 -49 480 -165 l61 -59 -6 40
c-23 145 -133 316 -256 400 l-25 17 50 0 c108 1 227 -39 332 -110 23 -16 44
-29 47 -29 22 0 -82 159 -142 217 -56 55 -172 112 -245 120 -80 9 -89 20 -22
28 33 3 65 8 70 11 22 8 159 -8 219 -26z m-1158 -645 c124 -22 216 -51 308
-97 99 -49 128 -68 194 -132 119 -113 150 -188 163 -389 10 -167 27 -261 69
-387 33 -96 96 -231 132 -283 11 -16 18 -30 16 -32 -2 -2 -51 2 -108 10 -408
52 -709 43 -1025 -32 -207 -49 -329 -106 -427 -201 l-67 -65 -53 24 c-76 33
-230 34 -304 1 l-51 -23 -65 64 c-217 213 -809 318 -1357 242 -167 -24 -161
-29 -100 93 57 113 117 184 184 212 22 9 92 29 155 44 489 117 685 174 832
244 85 40 201 114 251 161 l29 26 -27 -60 c-35 -80 -68 -130 -129 -190 -61
-61 -190 -129 -277 -146 -33 -6 -57 -15 -52 -20 15 -14 126 -29 219 -29 105 0
251 33 337 76 112 56 242 170 319 279 82 116 160 306 180 442 7 47 17 83 27
91 22 17 161 61 246 77 97 18 275 18 381 0z m1270 -1435 c98 -11 182 -20 187
-20 4 0 7 -78 7 -173 l0 -173 -90 -63 c-49 -35 -90 -68 -90 -73 0 -53 -65
-443 -82 -486 -11 -32 -29 -82 -39 -112 -20 -60 -115 -653 -184 -1150 -14
-102 -41 -287 -60 -412 -19 -124 -35 -229 -35 -232 0 -12 -103 -121 -210 -222
-344 -325 -745 -700 -814 -761 -97 -87 -178 -136 -277 -168 -125 -39 -217 -46
-574 -42 -540 7 -493 -18 -1190 631 -533 497 -576 538 -596 578 -22 43 -33
109 -104 603 -94 654 -167 1100 -211 1279 -19 77 -32 141 -30 143 5 5 6 2 41
-127 58 -210 118 -323 241 -446 70 -72 95 -89 195 -138 148 -72 209 -86 399
-93 244 -8 423 34 597 143 80 50 237 212 295 304 86 138 183 408 194 540 7 83
8 86 48 122 47 43 89 58 163 58 66 0 95 -11 153 -60 l47 -39 17 -105 c33 -202
137 -467 233 -593 19 -25 50 -78 68 -119 43 -94 79 -147 152 -218 140 -138
306 -212 565 -252 171 -26 234 -60 279 -151 21 -42 24 -62 23 -163 0 -137 -18
-236 -84 -465 -43 -151 -114 -335 -125 -324 -2 3 -1 100 3 218 4 117 4 215 0
217 -3 2 -11 -15 -16 -38 -6 -24 -26 -115 -46 -203 -78 -338 -173 -653 -219
-718 -10 -16 -17 -30 -15 -32 2 -2 126 116 276 263 l272 267 24 96 c26 103 76
411 181 1124 19 132 38 258 41 280 5 29 19 54 53 90 149 159 223 353 276 725
14 96 27 178 28 181 1 4 39 37 85 74 l83 66 -3 152 -3 151 -170 42 c-93 23
-163 42 -154 43 9 0 96 -8 195 -19z m-4423 -25 c-72 -18 -136 -36 -142 -39 -7
-5 -11 -61 -11 -161 l0 -154 40 -32 c52 -42 44 -49 -17 -14 -88 51 -83 37 -83
230 l0 173 103 12 c56 6 111 13 122 14 11 2 43 4 70 4 42 1 30 -4 -82 -33z
m1557 -158 c0 -8 -10 -22 -21 -33 -16 -14 -272 -309 -387 -447 -15 -16 -7 -17
146 -11 89 4 162 4 162 1 0 -3 -96 -78 -212 -165 -117 -88 -301 -228 -408
-311 -107 -83 -199 -151 -203 -151 -10 0 27 54 205 297 82 112 151 209 154
218 5 13 -15 15 -161 15 -134 0 -166 3 -162 13 4 11 247 338 394 530 l44 57
225 0 c181 0 224 -3 224 -13z m2343 7 c4 -4 -17 -34 -46 -67 -28 -33 -88 -103
-132 -157 -44 -53 -113 -135 -152 -182 -40 -47 -73 -88 -73 -90 0 -3 65 -3
145 0 93 3 145 1 145 -5 0 -6 -98 -86 -217 -179 -120 -92 -292 -227 -383 -299
-91 -72 -171 -135 -179 -140 -7 -4 20 39 60 97 41 58 120 171 177 251 56 80
105 153 108 162 6 15 -9 16 -160 13 -91 -2 -166 0 -166 3 0 3 44 64 98 135 54
71 130 175 170 231 39 57 93 132 119 167 l48 65 216 1 c119 0 219 -3 222 -6z
m452 -29 c67 -66 -23 -165 -96 -107 -33 27 -30 78 5 109 35 30 61 29 91 -2z
m-4203 -2 c37 -33 18 -98 -35 -116 -20 -7 -68 9 -79 26 -14 22 -8 67 12 87 24
24 77 26 102 3z m-476 -575 c-9 -85 -35 -172 -69 -230 -34 -58 -112 -130 -176
-162 -50 -26 -161 -60 -168 -52 -3 2 23 19 57 37 77 41 167 128 225 219 49 74
125 226 125 247 0 7 3 13 6 13 4 0 3 -32 0 -72z m5078 -58 c79 -30 175 -124
215 -211 53 -113 59 -266 21 -481 -29 -161 -115 -363 -191 -453 -39 -46 -150
-145 -162 -145 -3 0 -1 17 3 38 5 20 14 70 20 111 10 58 19 81 44 110 72 83
96 138 96 219 0 88 -21 149 -72 207 -50 56 -106 86 -177 94 l-54 6 49 31 c68
44 90 54 98 47 3 -3 6 -1 6 5 0 6 -7 15 -15 20 -9 5 -18 29 -22 60 -7 62 -2
64 78 28 57 -25 86 -52 112 -101 l16 -30 0 50 c1 92 -55 171 -138 196 -21 6
-73 10 -115 7 -65 -3 -75 -1 -70 12 3 8 11 51 16 95 15 118 15 118 107 113 44
-3 101 -15 135 -28z m-5004 -417 c10 -12 36 -38 60 -58 l42 -35 -36 0 c-72 0
-147 -56 -188 -138 -19 -39 -23 -63 -23 -137 0 -104 20 -155 88 -226 42 -43
40 -39 73 -223 7 -38 7 -38 -17 -26 -54 29 -176 165 -213 237 -62 124 -114
350 -104 456 3 37 6 40 55 57 58 20 149 74 203 119 30 25 36 27 39 13 2 -9 11
-27 21 -39z m163 -424 c58 -30 78 -113 35 -141 l-22 -15 48 -289 c27 -159 59
-347 73 -418 13 -71 22 -140 18 -153 -12 -49 -97 -56 -115 -9 -5 13 -27 131
-50 262 -22 132 -47 275 -55 319 -8 44 -22 125 -31 180 -11 68 -22 107 -35
121 -31 33 -23 80 24 132 23 24 73 30 110 11z m4707 -16 c43 -39 51 -92 18
-124 -27 -26 -28 -28 -113 -554 -25 -154 -50 -295 -56 -313 -18 -57 -74 -70
-109 -25 -14 18 -20 37 -17 53 3 14 16 90 30 170 14 80 39 217 55 305 17 88
35 200 41 249 12 85 11 89 -10 112 -50 53 9 154 91 154 29 0 48 -7 70 -27z
m-4525 -303 c8 -52 18 -107 21 -121 4 -23 1 -28 -27 -38 -18 -6 -34 -9 -37 -6
-2 2 -13 54 -22 115 l-18 111 26 43 27 44 7 -27 c5 -14 15 -69 23 -121z m4282
98 c25 -26 25 -28 14 -95 -31 -182 -34 -189 -77 -159 l-20 14 22 144 c25 163
24 158 31 138 3 -8 17 -27 30 -42z m-4782 -497 c41 -57 140 -127 191 -137 60
-11 53 -28 -9 -21 -63 6 -151 49 -174 84 -16 24 -55 123 -49 123 2 0 21 -22
41 -49z m3981 -1932 c-77 -259 -229 -718 -309 -934 -218 -591 -334 -881 -359
-896 -44 -28 -430 -104 -437 -87 -1 5 6 30 17 56 84 191 233 530 362 822 144
326 178 403 271 629 30 72 53 109 102 165 35 39 97 112 138 162 125 154 284
342 287 339 2 -2 -31 -117 -72 -256z"/>
<path d="M7350 8211 c0 -5 5 -13 10 -16 6 -3 10 -2 10 4 0 5 -4 13 -10 16 -5
3 -10 2 -10 -4z"/>
<path d="M5250 4661 c-14 -3 -42 -19 -62 -34 -51 -40 -117 -45 -206 -18 -39
11 -73 21 -76 21 -11 0 76 -120 95 -131 11 -6 18 -13 15 -17 -3 -3 -55 18
-115 47 -128 62 -146 62 -243 -1 -39 -25 -64 -36 -66 -28 -2 6 -15 23 -28 38
l-24 27 23 -52 c13 -29 30 -59 36 -67 21 -25 110 -63 201 -85 49 -12 89 -28
95 -37 43 -68 80 -105 136 -133 34 -17 75 -31 91 -31 63 0 219 98 369 232 59
52 69 66 84 119 19 69 14 86 -10 39 l-16 -31 -21 26 c-24 30 -35 27 -18 -5 12
-22 11 -22 -11 -7 -12 9 -24 27 -26 39 -2 13 -21 40 -43 61 -37 34 -44 37 -98
36 -31 -1 -68 -4 -82 -8z"/>
<path d="M5185 3953 c-76 -28 -139 -28 -226 -2 l-69 21 -197 -31 c-267 -41
-326 -47 -408 -41 -61 4 -70 8 -73 25 -2 12 -12 26 -22 33 -24 14 -66 -1 -113
-41 -36 -30 -32 -57 8 -76 17 -7 41 -24 55 -36 20 -18 41 -24 100 -28 141 -10
365 -27 500 -38 251 -21 381 -22 551 -5 90 8 238 18 329 21 91 3 192 10 225
15 33 5 76 10 96 10 25 0 42 7 59 25 13 14 31 25 40 25 25 0 60 29 60 50 0 24
-106 92 -139 88 -24 -3 -34 -14 -46 -52 -5 -17 -13 -18 -78 -13 -40 4 -156 20
-257 36 -252 40 -319 43 -395 14z"/>
<path d="M4670 3421 c0 -20 125 -124 182 -151 61 -29 67 -30 212 -30 l148 0
71 37 c40 21 99 64 132 95 l60 57 -55 -7 c-71 -9 -663 -9 -712 0 -21 4 -38 3
-38 -1z"/>
</g>
</svg>
